<svg width="48" height="48" viewBox="0 0 48 48" fill="none" xmlns="http://www.w3.org/2000/svg">
  <!-- Background circle -->
  <circle cx="24" cy="24" r="24" fill="#2563EB"/>

  <!-- Wrench icon -->
  <path d="M32 16.5C32 14.57 30.43 13 28.5 13C27.25 13 26.16 13.67 25.59 14.67L20 20.26V23H22.74L28.33 17.41C29.33 16.84 30 15.75 30 14.5C30 13.67 30.67 13 31.5 13C32.33 13 33 13.67 33 14.5C33 15.33 32.33 16 31.5 16H32C33.1 16 34 16.9 34 18V19C34 20.1 33.1 21 32 21H30.5L26.71 24.79C26.89 25.17 27 25.58 27 26C27 27.66 25.66 29 24 29C22.34 29 21 27.66 21 26C21 24.34 22.34 23 24 23C24.42 23 24.83 23.11 25.21 23.29L29 19.5V18C29 16.9 29.9 16 31 16H32.5C32.78 16 33 16.22 33 16.5Z" fill="white"/>

  <!-- Droplet -->
  <path d="M18 25C18 27.76 15.76 30 13 30C10.24 30 8 27.76 8 25C8 22.24 13 15 13 15C13 15 18 22.24 18 25Z" fill="#60A5FA"/>
  <path d="M18 25C18 27.76 15.76 30 13 30C10.24 30 8 27.76 8 25C8 22.24 13 15 13 15C13 15 18 22.24 18 25Z" stroke="white" stroke-width="1.5"/>
</svg>
